<svg id="visual" viewBox="0 0 1920 1080" width="1920" height="1080" xmlns="http://www.w3.org/2000/svg" xmlns:xlink="http://www.w3.org/1999/xlink" version="1.1"><rect x="0" y="0" width="1920" height="1080" fill="#161616"></rect><defs><linearGradient id="grad1_0" x1="43.8%" y1="0%" x2="100%" y2="100%"><stop offset="14.444444444444446%" stop-color="#fdd422" stop-opacity="1"></stop><stop offset="85.55555555555554%" stop-color="#fdd422" stop-opacity="1"></stop></linearGradient></defs><defs><linearGradient id="grad1_1" x1="43.8%" y1="0%" x2="100%" y2="100%"><stop offset="14.444444444444446%" stop-color="#fdd422" stop-opacity="1"></stop><stop offset="85.55555555555554%" stop-color="#d8b526" stop-opacity="1"></stop></linearGradient></defs><defs><linearGradient id="grad1_2" x1="43.8%" y1="0%" x2="100%" y2="100%"><stop offset="14.444444444444446%" stop-color="#b49828" stop-opacity="1"></stop><stop offset="85.55555555555554%" stop-color="#d8b526" stop-opacity="1"></stop></linearGradient></defs><defs><linearGradient id="grad1_3" x1="43.8%" y1="0%" x2="100%" y2="100%"><stop offset="14.444444444444446%" stop-color="#b49828" stop-opacity="1"></stop><stop offset="85.55555555555554%" stop-color="#927b27" stop-opacity="1"></stop></linearGradient></defs><defs><linearGradient id="grad1_4" x1="43.8%" y1="0%" x2="100%" y2="100%"><stop offset="14.444444444444446%" stop-color="#715f25" stop-opacity="1"></stop><stop offset="85.55555555555554%" stop-color="#927b27" stop-opacity="1"></stop></linearGradient></defs><defs><linearGradient id="grad1_5" x1="43.8%" y1="0%" x2="100%" y2="100%"><stop offset="14.444444444444446%" stop-color="#715f25" stop-opacity="1"></stop><stop offset="85.55555555555554%" stop-color="#514521" stop-opacity="1"></stop></linearGradient></defs><defs><linearGradient id="grad1_6" x1="43.8%" y1="0%" x2="100%" y2="100%"><stop offset="14.444444444444446%" stop-color="#332d1c" stop-opacity="1"></stop><stop offset="85.55555555555554%" stop-color="#514521" stop-opacity="1"></stop></linearGradient></defs><defs><linearGradient id="grad1_7" x1="43.8%" y1="0%" x2="100%" y2="100%"><stop offset="14.444444444444446%" stop-color="#332d1c" stop-opacity="1"></stop><stop offset="85.55555555555554%" stop-color="#161616" stop-opacity="1"></stop></linearGradient></defs><defs><linearGradient id="grad2_0" x1="0%" y1="0%" x2="56.3%" y2="100%"><stop offset="14.444444444444446%" stop-color="#fdd422" stop-opacity="1"></stop><stop offset="85.55555555555554%" stop-color="#fdd422" stop-opacity="1"></stop></linearGradient></defs><defs><linearGradient id="grad2_1" x1="0%" y1="0%" x2="56.3%" y2="100%"><stop offset="14.444444444444446%" stop-color="#d8b526" stop-opacity="1"></stop><stop offset="85.55555555555554%" stop-color="#fdd422" stop-opacity="1"></stop></linearGradient></defs><defs><linearGradient id="grad2_2" x1="0%" y1="0%" x2="56.3%" y2="100%"><stop offset="14.444444444444446%" stop-color="#d8b526" stop-opacity="1"></stop><stop offset="85.55555555555554%" stop-color="#b49828" stop-opacity="1"></stop></linearGradient></defs><defs><linearGradient id="grad2_3" x1="0%" y1="0%" x2="56.3%" y2="100%"><stop offset="14.444444444444446%" stop-color="#927b27" stop-opacity="1"></stop><stop offset="85.55555555555554%" stop-color="#b49828" stop-opacity="1"></stop></linearGradient></defs><defs><linearGradient id="grad2_4" x1="0%" y1="0%" x2="56.3%" y2="100%"><stop offset="14.444444444444446%" stop-color="#927b27" stop-opacity="1"></stop><stop offset="85.55555555555554%" stop-color="#715f25" stop-opacity="1"></stop></linearGradient></defs><defs><linearGradient id="grad2_5" x1="0%" y1="0%" x2="56.3%" y2="100%"><stop offset="14.444444444444446%" stop-color="#514521" stop-opacity="1"></stop><stop offset="85.55555555555554%" stop-color="#715f25" stop-opacity="1"></stop></linearGradient></defs><defs><linearGradient id="grad2_6" x1="0%" y1="0%" x2="56.3%" y2="100%"><stop offset="14.444444444444446%" stop-color="#514521" stop-opacity="1"></stop><stop offset="85.55555555555554%" stop-color="#332d1c" stop-opacity="1"></stop></linearGradient></defs><defs><linearGradient id="grad2_7" x1="0%" y1="0%" x2="56.3%" y2="100%"><stop offset="14.444444444444446%" stop-color="#161616" stop-opacity="1"></stop><stop offset="85.55555555555554%" stop-color="#332d1c" stop-opacity="1"></stop></linearGradient></defs><g transform="translate(1920, 0)"><path d="M0 540C-84.3 509.2 -168.6 478.5 -252.5 437.3C-336.4 396.2 -419.8 344.6 -467.7 270C-515.5 195.4 -527.7 97.7 -540 0L0 0Z" fill="#242119"></path><path d="M0 472.5C-73.8 445.6 -147.5 418.7 -220.9 382.7C-294.3 346.7 -367.3 301.5 -409.2 236.3C-451.1 171 -461.8 85.5 -472.5 0L0 0Z" fill="#42391f"></path><path d="M0 405C-63.2 381.9 -126.5 358.9 -189.4 328C-252.3 297.1 -314.9 258.5 -350.7 202.5C-386.6 146.5 -395.8 73.3 -405 0L0 0Z" fill="#615223"></path><path d="M0 337.5C-52.7 318.3 -105.4 299.1 -157.8 273.3C-210.2 247.6 -262.4 215.4 -292.3 168.8C-322.2 122.1 -329.8 61.1 -337.5 0L0 0Z" fill="#816d26"></path><path d="M0 270C-42.2 254.6 -84.3 239.2 -126.2 218.7C-168.2 198.1 -209.9 172.3 -233.8 135C-257.7 97.7 -263.9 48.8 -270 0L0 0Z" fill="#a38928"></path><path d="M0 202.5C-31.6 191 -63.2 179.4 -94.7 164C-126.1 148.6 -157.4 129.2 -175.4 101.3C-193.3 73.3 -197.9 36.6 -202.5 0L0 0Z" fill="#c6a627"></path><path d="M0 135C-21.1 127.3 -42.2 119.6 -63.1 109.3C-84.1 99 -105 86.2 -116.9 67.5C-128.9 48.8 -131.9 24.4 -135 0L0 0Z" fill="#eac525"></path><path d="M0 67.5C-10.5 63.7 -21.1 59.8 -31.6 54.7C-42 49.5 -52.5 43.1 -58.5 33.8C-64.4 24.4 -66 12.2 -67.5 0L0 0Z" fill="#fdd422"></path></g><g transform="translate(0, 1080)"><path d="M0 -540C109 -534.3 218 -528.6 270 -467.7C322 -406.7 317 -290.6 352.5 -203.5C388 -116.4 464 -58.2 540 0L0 0Z" fill="#242119"></path><path d="M0 -472.5C95.4 -467.5 190.8 -462.5 236.2 -409.2C281.7 -355.9 277.4 -254.3 308.4 -178.1C339.5 -101.8 406 -50.9 472.5 0L0 0Z" fill="#42391f"></path><path d="M0 -405C81.8 -400.7 163.5 -396.4 202.5 -350.7C241.5 -305.1 237.7 -218 264.4 -152.6C291 -87.3 348 -43.6 405 0L0 0Z" fill="#615223"></path><path d="M0 -337.5C68.1 -333.9 136.3 -330.4 168.7 -292.3C201.2 -254.2 198.1 -181.7 220.3 -127.2C242.5 -72.7 290 -36.4 337.5 0L0 0Z" fill="#816d26"></path><path d="M0 -270C54.5 -267.1 109 -264.3 135 -233.8C161 -203.4 158.5 -145.3 176.2 -101.8C194 -58.2 232 -29.1 270 0L0 0Z" fill="#a38928"></path><path d="M0 -202.5C40.9 -200.4 81.8 -198.2 101.2 -175.4C120.7 -152.5 118.9 -109 132.2 -76.3C145.5 -43.6 174 -21.8 202.5 0L0 0Z" fill="#c6a627"></path><path d="M0 -135C27.3 -133.6 54.5 -132.1 67.5 -116.9C80.5 -101.7 79.2 -72.7 88.1 -50.9C97 -29.1 116 -14.5 135 0L0 0Z" fill="#eac525"></path><path d="M0 -67.5C13.6 -66.8 27.3 -66.1 33.7 -58.5C40.2 -50.8 39.6 -36.3 44.1 -25.4C48.5 -14.5 58 -7.3 67.5 0L0 0Z" fill="#fdd422"></path></g></svg>